<?xml version="1.0" encoding="utf-8"?>
<svg id="master-artboard" viewBox="0 0 1400 980" version="1.1" xmlns="http://www.w3.org/2000/svg" x="0px" y="0px" width="1400px" height="980px" enable-background="new 0 0 1400 980">
<path d="M679.21,295.201c-0.251,0-0.501-0.064-0.726-0.194l-34.254-19.775c-0.449-0.259-0.726-0.739-0.726-1.257V234.42&#10;&#9;&#9;&#9;c0-0.519,0.277-0.998,0.726-1.257l34.254-19.777c0.45-0.259,1.002-0.259,1.452,0l34.255,19.777&#10;&#9;&#9;&#9;c0.449,0.259,0.726,0.739,0.726,1.257v39.554c0,0.519-0.276,0.998-0.726,1.257l-34.255,19.775&#10;&#9;&#9;&#9;C679.711,295.137,679.461,295.201,679.21,295.201z M646.407,273.136l32.803,18.938l32.803-18.938v-37.878L679.21,216.32&#10;&#9;&#9;&#9;l-32.803,18.938V273.136z" transform="matrix(1, 0, 0, 1, -5.684341886080802e-14, 0)"/><path d="M713.466,354.792c-0.251,0-0.501-0.064-0.726-0.194l-34.256-19.777c-0.449-0.259-0.726-0.739-0.726-1.257v-39.552&#10;&#9;&#9;&#9;c0-0.519,0.276-0.998,0.726-1.257l34.256-19.778c0.449-0.259,1.002-0.259,1.451,0l34.252,19.778&#10;&#9;&#9;&#9;c0.449,0.259,0.726,0.738,0.726,1.257v39.552c0,0.519-0.276,0.998-0.726,1.257l-34.252,19.777&#10;&#9;&#9;&#9;C713.968,354.728,713.717,354.792,713.466,354.792z M680.662,332.726l32.804,18.939l32.8-18.939v-37.876l-32.8-18.939&#10;&#9;&#9;&#9;l-32.804,18.939V332.726z" transform="matrix(1, 0, 0, 1, -5.684341886080802e-14, 0)"/><path d="M644.956,354.792c-0.25,0-0.501-0.064-0.726-0.194l-34.254-19.777c-0.45-0.259-0.726-0.739-0.726-1.257v-39.552&#10;&#9;&#9;&#9;c0-0.519,0.276-0.998,0.726-1.257l34.254-19.778c0.449-0.259,1.002-0.259,1.452,0l34.254,19.778&#10;&#9;&#9;&#9;c0.45,0.259,0.726,0.738,0.726,1.257v39.552c0,0.519-0.276,0.998-0.726,1.257l-34.254,19.777&#10;&#9;&#9;&#9;C645.457,354.728,645.207,354.792,644.956,354.792z M612.153,332.726l32.802,18.939l32.803-18.939v-37.876l-32.803-18.939&#10;&#9;&#9;&#9;l-32.802,18.939V332.726z" transform="matrix(1, 0, 0, 1, -5.684341886080802e-14, 0)"/><path d="M747.718,295.201c-0.251,0-0.501-0.064-0.727-0.194l-34.251-19.775c-0.449-0.259-0.727-0.739-0.727-1.257V234.42&#10;&#9;&#9;&#9;c0-0.519,0.277-0.998,0.727-1.257l34.251-19.777c0.45-0.259,1.003-0.259,1.452,0l34.255,19.777&#10;&#9;&#9;&#9;c0.449,0.259,0.726,0.739,0.726,1.257v39.554c0,0.519-0.276,0.998-0.726,1.257l-34.255,19.775&#10;&#9;&#9;&#9;C748.22,295.137,747.969,295.201,747.718,295.201z M714.917,273.136l32.801,18.938l32.803-18.938v-37.878l-32.803-18.938&#10;&#9;&#9;&#9;l-32.801,18.938V273.136z" transform="matrix(1, 0, 0, 1, -5.684341886080802e-14, 0)"/><path d="M713.466,235.553c-0.251,0-0.501-0.065-0.726-0.194l-34.256-19.778c-0.449-0.259-0.726-0.738-0.726-1.257v-39.552&#10;&#9;&#9;&#9;c0-0.519,0.276-0.998,0.726-1.257l34.256-19.777c0.449-0.259,1.002-0.259,1.451,0l34.252,19.777&#10;&#9;&#9;&#9;c0.449,0.26,0.726,0.739,0.726,1.257v39.552c0,0.519-0.276,0.998-0.726,1.257l-34.252,19.778&#10;&#9;&#9;&#9;C713.968,235.487,713.717,235.553,713.466,235.553z M680.662,213.485l32.804,18.939l32.8-18.939v-37.876l-32.8-18.939&#10;&#9;&#9;&#9;l-32.804,18.939V213.485z" transform="matrix(1, 0, 0, 1, -5.684341886080802e-14, 0)"/>
</svg>